<svg width="130" height="32" viewBox="0 0 130 32" fill="none" xmlns="http://www.w3.org/2000/svg">
<g clip-path="url(#clip0)">
<path d="M15.2031 10.7685H18.8011C18.6925 6.80824 15.1911 3.93466 10.1683 3.93466C5.20597 3.93466 1.4027 6.77202 1.4027 11.0341C1.4027 14.4751 3.86577 16.4915 7.83807 17.5661L10.7599 18.3629C13.4041 19.0632 15.4446 19.9325 15.4446 22.13C15.4446 24.5447 13.1385 26.1385 9.96307 26.1385C7.08949 26.1385 4.69886 24.8587 4.48153 22.1662H0.738636C0.980114 26.6456 4.44531 29.4105 9.98722 29.4105C15.7947 29.4105 19.1392 26.3558 19.1392 22.1662C19.1392 17.7109 15.1669 15.9844 12.0277 15.2116L9.61293 14.5838C7.68111 14.0888 5.10938 13.1832 5.12145 10.8168C5.12145 8.71591 7.04119 7.15838 10.0838 7.15838C12.9212 7.15838 14.9375 8.48651 15.2031 10.7685ZM26.9178 17.9886C26.9178 15.0305 28.7892 13.3402 31.361 13.3402C33.8482 13.3402 35.3333 14.9219 35.3333 17.6385V29H38.9434V17.2038C38.9434 12.5795 36.4078 10.2131 32.5925 10.2131C29.7069 10.2131 27.9682 11.4688 27.0989 13.473H26.8695V4.27273H23.3077V29H26.9178V17.9886ZM51.7537 29.3743C55.7985 29.3743 58.66 27.3821 59.481 24.3636L56.0641 23.7479C55.4121 25.4986 53.8425 26.392 51.79 26.392C48.699 26.392 46.6223 24.3878 46.5257 20.8139H59.7104V19.5341C59.7104 12.8331 55.7019 10.2131 51.5002 10.2131C46.3326 10.2131 42.9277 14.1491 42.9277 19.848C42.9277 25.6072 46.2843 29.3743 51.7537 29.3743ZM46.5378 18.1094C46.6827 15.4773 48.5904 13.1953 51.5243 13.1953C54.3255 13.1953 56.1607 15.272 56.1728 18.1094H46.5378ZM67.326 17.9886C67.326 15.0305 69.1974 13.3402 71.7692 13.3402C74.2564 13.3402 75.7415 14.9219 75.7415 17.6385V29H79.3516V17.2038C79.3516 12.5795 76.8161 10.2131 73.0007 10.2131C70.1151 10.2131 68.3764 11.4688 67.5071 13.473H67.2777V4.27273H63.7159V29H67.326V17.9886ZM89.5661 29.4105C92.6328 29.4105 94.3594 27.853 95.0476 26.4645H95.1925V29H98.718V16.6847C98.718 11.2876 94.468 10.2131 91.522 10.2131C88.1655 10.2131 85.0746 11.5653 83.8672 14.946L87.2599 15.7188C87.7912 14.4027 89.1435 13.1349 91.5703 13.1349C93.9006 13.1349 95.0959 14.3544 95.0959 16.4553V16.5398C95.0959 17.8558 93.7436 17.8317 90.4112 18.218C86.8977 18.6286 83.2997 19.5462 83.2997 23.7599C83.2997 27.4062 86.0405 29.4105 89.5661 29.4105ZM90.3509 26.5128C88.3104 26.5128 86.8374 25.5952 86.8374 23.8082C86.8374 21.8764 88.5518 21.1882 90.6406 20.9105C91.8118 20.7536 94.5888 20.4396 95.108 19.9205V22.3111C95.108 24.5085 93.3572 26.5128 90.3509 26.5128ZM103.816 29H107.342V26.1143H107.644C108.296 27.2976 109.624 29.3622 113.004 29.3622C117.496 29.3622 120.756 25.7642 120.756 19.7635C120.756 13.7507 117.448 10.2131 112.968 10.2131C109.527 10.2131 108.284 12.3139 107.644 13.4609H107.426V4.27273H103.816V29ZM107.354 19.7273C107.354 15.8516 109.044 13.2798 112.195 13.2798C115.468 13.2798 117.11 16.0447 117.11 19.7273C117.11 23.446 115.419 26.2834 112.195 26.2834C109.093 26.2834 107.354 23.6271 107.354 19.7273ZM127.188 29.2294C128.504 29.2294 129.603 28.1548 129.603 26.8146C129.603 25.4986 128.504 24.4119 127.188 24.4119C125.86 24.4119 124.773 25.4986 124.773 26.8146C124.773 28.1548 125.86 29.2294 127.188 29.2294Z" fill="black"/>
</g>
<defs>
<clipPath id="clip0">
<rect width="130" height="32" fill="white"/>
</clipPath>
</defs>
</svg>
